<svg xmlns="http://www.w3.org/2000/svg" xmlns:xlink="http://www.w3.org/1999/xlink" width="1500" zoomAndPan="magnify" viewBox="0 0 1125 1124.99995" height="1500" preserveAspectRatio="xMidYMid meet" version="1.0"><path stroke-linecap="butt" transform="matrix(1.850329, 0, 0, 1.850329, 562.499977, 562.499932)" fill-opacity="1" fill="rgb(0%, 0%, 0%)" fill-rule="nonzero" stroke-linejoin="miter" d="M 0.0000126667 287.999971 C 126.200144 287.999971 196.356599 287.999971 242.178273 242.178297 C 287.999947 196.356623 287.999947 126.200168 287.999947 0.0000369867 C 287.999947 -126.200094 287.999947 -196.356549 242.178273 -242.178223 C 196.356599 -287.999897 126.200144 -287.999897 0.0000126667 -287.999897 C -126.200118 -287.999897 -196.356574 -287.999897 -242.178248 -242.178223 C -287.999921 -196.356549 -287.999921 -126.200094 -287.999921 0.0000369867 C -287.999921 126.200168 -287.999921 196.356623 -242.178248 242.178297 C -196.356574 287.999971 -126.200118 287.999971 0.0000126667 287.999971 Z M 0.0000126667 287.999971 " stroke="rgb(0%, 0%, 0%)" stroke-width="4.04" stroke-opacity="1" stroke-miterlimit="4"/><path fill="rgb(0%, 34.118652%, 71.759033%)" d="M 482.371094 218.941406 C 394.144531 218.941406 322.621094 290.464844 322.621094 378.691406 C 322.621094 466.917969 394.144531 538.441406 482.371094 538.441406 C 570.597656 538.441406 642.121094 466.917969 642.121094 378.691406 C 642.121094 290.464844 570.597656 218.941406 482.371094 218.941406 " fill-opacity="1" fill-rule="nonzero"/><path fill="rgb(0%, 34.118652%, 71.759033%)" d="M 482.539062 218.941406 L 802.039062 218.941406 L 802.039062 538.441406 L 482.539062 538.441406 L 482.539062 218.941406 " fill-opacity="1" fill-rule="nonzero"/><path fill="rgb(100%, 84.309387%, 0%)" d="M 482.371094 586.222656 C 394.144531 586.222656 322.621094 657.742188 322.621094 745.972656 C 322.621094 834.199219 394.144531 905.722656 482.371094 905.722656 C 570.597656 905.722656 642.121094 834.199219 642.121094 745.972656 C 642.121094 657.742188 570.597656 586.222656 482.371094 586.222656 " fill-opacity="1" fill-rule="nonzero"/><path fill="rgb(100%, 84.309387%, 0%)" d="M 642.289062 586.222656 C 554.0625 586.222656 482.539062 657.742188 482.539062 745.972656 C 482.539062 834.199219 554.0625 905.722656 642.289062 905.722656 C 730.519531 905.722656 802.039062 834.199219 802.039062 745.972656 C 802.039062 657.742188 730.519531 586.222656 642.289062 586.222656 " fill-opacity="1" fill-rule="nonzero"/><path fill="rgb(100%, 84.309387%, 0%)" d="M 479.730469 586.222656 L 649.980469 586.222656 L 649.980469 905.71875 L 479.730469 905.71875 L 479.730469 586.222656 " fill-opacity="1" fill-rule="nonzero"/></svg>